<svg width="2000" height="2000" viewBox="0 0 2000 2000" fill="none" xmlns="http://www.w3.org/2000/svg">
<circle cx="1250" cy="1191" r="750" fill="white"/>
<path fill-rule="evenodd" clip-rule="evenodd" d="M939.273 1626C1012.78 1626 1076.34 1600.25 1127.99 1549.51C1182.19 1496.26 1210.37 1414.17 1202.84 1336.4L1616.18 930.285C1644.4 902.504 1660.24 864.854 1660.22 825.607C1660.2 786.359 1644.33 748.724 1616.08 720.968C1559.23 665.011 1460 665.011 1403.14 720.968L974.361 1142.26C882.032 1150.27 790.619 1214.38 790.619 1328.1C790.619 1342.47 791.633 1355.98 792.646 1368.88C796.507 1417.77 797.907 1436.13 721.649 1473.59C714.159 1477.28 707.775 1482.82 703.124 1489.67C698.473 1496.52 695.715 1504.44 695.122 1512.65C694.528 1520.87 696.118 1529.09 699.737 1536.52C703.355 1543.94 708.877 1550.32 715.761 1555.01C715.828 1555.05 715.918 1555.11 716.031 1555.19C723.238 1559.94 823.419 1626 939.273 1626ZM1471.39 787.974C1481.69 778.267 1495.41 772.855 1509.68 772.873C1523.95 772.89 1537.66 778.336 1547.93 788.069C1552.95 793.001 1556.94 798.856 1559.65 805.3C1562.37 811.744 1563.77 818.651 1563.77 825.626C1563.77 832.601 1562.37 839.508 1559.65 845.952C1556.94 852.397 1552.95 858.252 1547.93 863.184L1177.65 1227L1101.1 1151.79L1471.39 787.974ZM888.933 1361.53L888.908 1361.22C888.047 1350.7 887.148 1339.7 887.148 1328.05C887.148 1254.79 956.89 1235.44 993.812 1235.44C1010.99 1235.44 1027.55 1238.9 1040.34 1245.21C1085.95 1267.73 1101.15 1306.52 1105.83 1335.12C1114.38 1386.81 1095.36 1447.41 1059.69 1482.46C1026.34 1515.22 986.958 1531.16 939.273 1531.16H939.225C903.027 1531.16 867.842 1521.86 839.125 1510.91C891.347 1464.77 893.229 1416.59 888.933 1361.53ZM1427.19 1435.25C1427.19 1416.57 1442.33 1401.43 1461.01 1401.43H1771.18C1789.86 1401.43 1805 1416.57 1805 1435.25C1805 1453.93 1789.86 1469.07 1771.18 1469.07H1461.01C1442.33 1469.07 1427.19 1453.93 1427.19 1435.25ZM1327.26 1531.3C1308.58 1531.3 1293.43 1546.44 1293.43 1565.12C1293.43 1583.8 1308.58 1598.94 1327.26 1598.94H1771.18C1789.86 1598.94 1805 1583.8 1805 1565.12C1805 1546.44 1789.86 1531.3 1771.18 1531.3H1327.26Z" fill="url(#paint0_linear_107:2)"/>
<defs>
<linearGradient id="paint0_linear_107:2" x1="797" y1="1029" x2="1500" y2="1029" gradientUnits="userSpaceOnUse">
<stop stop-color="#8CE6FD"/>
<stop offset="1" stop-color="#C7A0F6"/>
</linearGradient>
</defs>
</svg>
